<mxfile host="app.diagrams.net" modified="2024-01-19T16:14:49.792Z" agent="Mozilla/5.0 (X11; Linux x86_64) AppleWebKit/537.36 (KHTML, like Gecko) Chrome/120.0.0.0 Safari/537.36" version="22.1.21" etag="MRhLx4r3pAaBMCw-XdTC" type="github">
  <diagram name="Page-1" id="sWKHwpVOxaGSjT4KSF45">
    <mxGraphModel>
      <root>
        <mxCell id="0" />
        <mxCell id="1" parent="0" />
      </root>
    </mxGraphModel>
  </diagram>
</mxfile>
